PathFileType	4	(X/Y/Z)	D:\TRACE\spotREDO_2-26-24\spot_justArm_Motion_3_2-v60.trc
DataRate	CameraRate	NumFrames	NumMarkers	Units	OrigDataRate	OrigDataStartFrame	OrigNumFrames
100.00	100.00	      31	9	mm	100.00	1751	      7000
Frame#	Time	front left toe			Front right toe			aft left toe			aft right toe			Arm			FL body			FR body			AL Body			AR Body			
		X1	Y1	Z1	X2	Y2	Z2	X3	Y3	Z3	X4	Y4	Z4	X5	Y5	Z5	X6	Y6	Z6	X7	Y7	Z7	X8	Y8	Z8	X9	Y9	Z9	

1751	17.500	-188.29596	38.87976	-259.70499	298.68909	37.07096	-224.63106	-223.28441	4.76389	349.94131	262.12067	4.15707	391.88199	-45.63460	751.08649	-757.75452	0.58337	566.46796	-309.75763	155.74142	570.43793	-302.91248	-44.38071	537.57684	572.84613	103.43266	537.43488	580.79083	
1752	17.510	-188.60455	39.04186	-259.69171	298.16025	37.09816	-224.70476	-223.85573	4.67318	349.82599	262.07828	4.21780	392.00586	-45.87818	750.94824	-757.64056	0.28661	566.55957	-309.68423	155.59193	570.52380	-302.81772	-44.64834	537.50470	572.92542	103.02176	537.32477	580.95361	
1753	17.520	-189.06453	39.12066	-259.66171	297.52466	36.97187	-224.76587	-224.31491	4.68724	349.78522	261.38281	4.00255	391.92871	-46.18271	750.87415	-757.50134	0.08668	566.48022	-309.60336	155.42888	570.54041	-302.71432	-44.99707	537.40674	572.98297	102.61967	537.22443	580.97607	
1754	17.530	-189.48543	39.22713	-259.74768	297.25226	37.01075	-224.67822	-224.67378	4.78741	349.78491	260.85022	3.88528	391.90427	-46.55812	750.89789	-757.41168	-0.19306	566.53168	-309.51855	155.21985	570.61432	-302.60693	-45.36417	537.25092	573.01819	102.28026	537.17322	581.09009	
1755	17.540	-189.95532	39.24500	-259.83942	297.01627	37.04490	-224.55495	-225.07996	4.84244	349.77493	260.77390	3.97138	392.00436	-46.79898	750.85376	-757.34521	-0.60436	566.54279	-309.40515	154.80003	570.70984	-302.57822	-45.67902	537.14813	573.01337	101.96569	537.06958	581.13861	
1756	17.550	-190.27617	39.23870	-259.85223	297.09613	37.59032	-224.01332	-225.31499	4.63806	349.83148	260.50372	3.99588	392.04263	-47.14692	750.85364	-757.32141	-0.89655	566.54065	-309.31546	154.39552	570.76172	-302.48181	-45.99400	537.08942	573.03754	102.03542	537.04004	581.51123	
1757	17.560	-190.52515	39.15063	-259.78586	296.90710	37.64159	-223.91231	-225.58823	4.55576	349.79550	260.22153	4.07001	392.08618	-45.63172	750.85675	-755.62817	-1.32859	566.57251	-309.14380	154.13278	570.80420	-302.37106	-46.04105	536.93585	573.05090	101.87411	536.97028	581.62427	
1758	17.570	-190.89320	39.12029	-259.74881	296.29962	37.22456	-224.18169	-225.90367	4.55641	349.69534	259.82199	4.06624	392.06723	-47.96570	750.86011	-757.12189	-1.59243	566.63623	-309.13791	153.92709	570.81775	-302.21075	-46.54698	536.91766	573.14398	101.38644	536.89331	581.62451	
1759	17.580	-191.23683	39.04403	-259.75656	296.06223	37.20509	-224.14584	-226.17416	4.60835	349.70834	259.69540	4.11600	392.05597	-48.15460	750.83221	-757.13611	-1.84536	566.65991	-309.10483	153.65147	570.83691	-302.12350	-47.17749	536.81494	572.99310	100.79245	536.89996	581.32446	
1760	17.590	-191.52264	39.00767	-259.72632	295.79166	37.23227	-224.09888	-226.50490	4.62261	349.70517	259.58493	4.31181	392.12787	-48.43243	750.71692	-757.18817	-2.23476	566.69360	-309.08536	153.20497	570.88080	-302.16058	-47.40596	536.80157	573.18231	100.51850	536.86432	581.33453	
1761	17.600	-191.85887	38.98491	-259.66446	295.37354	37.15084	-224.26208	-226.73355	4.59200	349.79105	258.94693	4.26389	392.09006	-48.97379	750.66504	-757.30743	-2.60615	566.68439	-309.11514	152.58664	570.89801	-302.23444	-47.75418	536.74280	573.21179	99.94439	536.80237	581.33740	
1762	17.610	-192.08958	38.97411	-259.65103	294.91550	37.12926	-224.33720	-227.14952	4.64739	349.82086	258.33789	4.14775	392.02338	-49.55788	750.46887	-757.17615	-2.81852	566.70294	-309.05383	152.23433	570.93250	-302.28635	-48.07542	536.64856	573.16980	99.59203	536.72998	581.34253	
1763	17.620	-192.43317	39.00904	-259.64795	294.37952	37.00093	-224.44679	-227.42033	4.70579	349.76648	258.28409	4.21630	392.11459	-48.52728	750.29584	-756.05634	-3.26350	566.77777	-308.92520	151.98076	570.93475	-302.33057	-48.50307	536.56818	573.22485	99.27139	536.64728	581.38782	
1764	17.630	-192.70148	39.02697	-259.68051	294.07568	36.96627	-224.42830	-227.73125	4.73468	349.83826	257.91089	4.14226	392.11050	-48.16106	750.38080	-755.49628	-3.64825	566.74286	-308.89252	151.66753	570.97357	-302.51721	-48.93204	536.48309	573.31189	98.88986	536.65912	581.44348	
1765	17.640	-193.03186	38.96719	-259.70355	293.87677	36.92566	-224.53172	-227.96741	4.73780	349.83456	257.62219	4.15705	392.14066	-50.56380	750.55652	-757.48535	-4.26125	566.65784	-309.10263	151.08664	570.79224	-302.44589	-49.41330	536.48468	573.36481	98.44313	536.81860	581.42694	
1766	17.650	-193.10600	38.75682	-259.64218	293.73492	36.90862	-224.52452	-228.20798	4.77554	349.87006	257.38605	4.09151	392.06396	-51.00283	751.04517	-756.94281	-4.82829	566.06262	-309.12073	150.52194	570.37000	-302.39478	-49.35693	536.57874	573.23352	98.08259	537.02490	581.38867	
1767	17.660	-193.30537	38.65832	-259.58850	293.65167	36.86493	-224.47087	-228.48610	4.77942	349.91821	257.20932	4.12761	392.01633	-51.25785	751.84320	-756.05029	-5.35141	565.65094	-309.26926	150.33623	570.15662	-302.44379	-50.06221	536.79358	573.12457	97.59696	537.35181	581.12903	
1768	17.670	-193.67775	38.50934	-259.65863	293.64276	36.87961	-224.47665	-228.71698	4.89725	349.89771	257.08304	4.44259	392.05045	-51.37105	753.11920	-754.73438	-5.17212	565.34149	-309.48819	149.96478	569.87622	-302.71317	-50.58604	536.93073	572.91278	96.97137	537.44257	581.01135	
1769	17.680	-194.06905	38.47721	-259.80701	293.34317	36.76015	-224.42102	-228.92465	4.86696	349.89581	256.76749	4.59252	392.02020	-52.22751	755.28064	-753.27759	-5.47928	565.11487	-309.87451	149.83394	569.73676	-302.92429	-51.43218	536.88428	572.47675	96.31343	537.33740	580.76013	
1770	17.690	-194.34396	38.44110	-259.90353	293.09253	36.67912	-224.47217	-229.28319	4.88710	349.85556	256.02197	4.59540	391.85529	-51.35630	757.71051	-750.22876	-5.61932	565.17047	-310.17502	149.69267	569.74457	-303.08908	-51.86645	536.77930	572.40411	95.69099	537.18506	580.60101	
1771	17.700	-194.60469	38.49112	-260.04849	292.80362	36.57044	-224.47720	-229.68237	4.97675	349.71570	255.58775	4.69020	391.82996	-54.57555	760.41199	-750.27649	-5.54716	565.24420	-310.33725	149.64719	569.89240	-303.15598	-52.60336	536.49902	572.05762	95.51382	537.09094	580.78137	
1772	17.710	-194.78333	38.50927	-260.18030	292.33264	36.42453	-224.60786	-229.91187	5.02810	349.63803	255.32541	4.97643	391.88962	-56.32586	763.14868	-748.71631	-5.67362	565.49591	-310.47565	149.41907	570.27686	-303.22446	-53.11509	536.25214	571.88177	94.42688	536.77307	580.23206	
1773	17.720	-194.98604	38.46357	-260.23944	291.81064	36.30266	-224.84108	-230.12292	5.12566	349.65280	255.14420	5.01257	391.89737	-57.74934	765.52386	-747.51947	-5.98930	565.82513	-310.54623	149.17148	570.69855	-303.34293	-53.86110	535.82959	571.75897	93.89156	536.35083	580.23743	
1774	17.730	-195.16510	38.35362	-260.32925	291.36197	36.13446	-225.06642	-230.36864	5.22441	349.64059	255.12785	5.06121	391.85651	-59.36121	767.77917	-746.52521	-6.45562	566.36066	-310.51880	148.87862	571.26215	-303.24545	-54.27338	535.19330	571.67511	93.63867	535.78357	580.27368	
1775	17.740	-195.36206	38.19323	-260.33536	291.23087	36.10923	-225.15437	-230.53545	5.32577	349.64233	255.09824	5.10361	391.81839	-60.95101	769.72290	-746.45319	-6.24556	566.99414	-310.48450	148.50659	571.64825	-302.85135	-54.28894	534.55969	571.76154	93.50829	535.24896	580.22284	
1776	17.750	-195.59633	38.07167	-260.34485	291.00098	36.07715	-225.28160	-230.80977	5.49468	349.62537	255.02490	5.20103	391.80295	-61.73639	771.21149	-746.11401	-7.34545	568.04071	-310.53561	147.85555	572.81158	-303.05197	-54.20321	534.03052	571.81586	93.20757	534.76544	580.14948	
1777	17.760	-195.91692	37.91946	-260.29163	290.82724	36.19271	-225.34445	-230.96663	5.58357	349.67740	254.92242	5.28044	391.81268	-60.59634	772.52911	-744.40491	-8.00909	568.60718	-310.33344	147.12912	573.70764	-303.19510	-54.20237	533.45490	571.85175	93.36783	534.09570	580.22437	
1778	17.770	-196.23656	37.82924	-260.27454	290.75089	36.25311	-225.36557	-231.16248	5.75041	349.69485	254.84824	5.54162	391.75388	-63.08777	773.05383	-746.12964	-8.90771	569.21222	-310.13922	146.30396	574.30890	-303.19217	-54.13340	532.78479	572.05743	93.51687	533.64209	580.32135	
1779	17.780	-196.58719	37.69735	-260.23447	290.68231	36.37597	-225.38220	-231.40434	6.16273	349.59454	254.80475	5.90168	391.71106	-63.55991	773.46820	-746.56012	-9.69105	569.84430	-309.85333	145.56818	574.71240	-302.78159	-54.44463	532.47070	572.03320	93.77309	533.40796	580.32599	
1780	17.790	-196.85936	37.48033	-260.29440	290.50565	36.34333	-225.48692	-231.57736	6.47327	349.55075	254.68336	6.04518	391.58990	-63.40272	773.46930	-746.92078	-10.53815	570.29260	-309.65805	144.71817	575.24438	-302.72861	-54.17248	532.22601	572.29395	93.84102	533.25085	580.26428	
1781	17.800	-196.99898	37.05748	-260.22382	290.23807	36.20932	-225.59360	-231.60831	6.42803	349.56558	254.52380	6.31861	391.57266	-63.11562	773.31439	-747.38239	-11.33615	570.57739	-309.49771	143.71750	575.84009	-302.94702	-53.96039	532.10107	572.54761	94.13819	533.17163	580.63147	
